<svg xmlns="http://www.w3.org/2000/svg" xmlns:svg="http://www.w3.org/2000/svg" id="icons" width="439.968" height="384.016" enable-background="new 0 0 64 64" version="1.1" viewBox="0 0 54.996 48.002"><metadata id="metadata1048"/><path id="path961" d="m 46.996,48.002 c -0.553,0 -1,-0.2235 -1,-0.5 V 32.504 c 0,-0.2765 0.447,-0.5 1,-0.5 0.553,0 1,0.2235 1,0.5 v 14.998 c 0,0.2765 -0.447,0.5 -1,0.5 z" style="fill:#ccd1d9;stroke-width:.70710677"/><path id="path963" d="m 37,48.002 c -0.553,0 -1,-0.2235 -1,-0.5 V 32.504 c 0,-0.2765 0.447,-0.5 1,-0.5 0.553,0 1,0.2235 1,0.5 v 14.998 c 0,0.2765 -0.447,0.5 -1,0.5 z" style="fill:#ccd1d9;stroke-width:.70710677"/><path id="path965" d="m 36.998,30 h 3 7 5 0.5 c 0.83,0 1.5,0.67 1.5,1.5 0,0.83 -0.67,1.5 -1.5,1.5 h -5.5 -10 -5.5 c -0.83,0 -1.5,-0.67 -1.5,-1.5 0,-0.83 0.67,-1.5 1.5,-1.5 h 0.5 z" style="fill:#ed5565"/><path id="path967" d="m 39.998,24 v 6 h -3 v -8 z" style="fill:#ce2c3f"/><path id="path969" d="m 46.998,17 v 8 l -6,-4 v -4 z" style="fill:#ce2c3f"/><path id="path971" d="m 46.998,25 v -8 h -6 v 4 z m 0,5 h -7 v -6 l -3,-2 v 8 h -5 V 11 10.99 c 0.01,-5.53 4.48,-9.99 10,-9.99 5.52,0 9.99,4.46 10,9.99 V 11 30 Z" style="fill:#da4453"/><path id="path973" d="m 17.998,22 v 8 h -3 v -6 z" style="fill:#aab2bd"/><path id="path975" d="m 13.998,17 v 4 l -6,4 v -8 z" style="fill:#aab2bd"/><path id="path977" d="m 23.498,30 c 0.83,0 1.5,0.67 1.5,1.5 0,0.83 -0.67,1.5 -1.5,1.5 h -5.5 -10 -5.5 c -0.83,0 -1.5,-0.67 -1.5,-1.5 0,-0.83 0.67,-1.5 1.5,-1.5 h 0.5 5 7 3 5 z" style="fill:#e6e9ed"/><path id="path979" d="m 7.998,25 6,-4 v -4 h -6 z m 10,-3 -3,2 v 6 h -7 -5 V 11 10.99 C 3.008,5.46 7.478,1 12.998,1 c 5.52,0 9.99,4.46 10,9.99 V 11 30 h -5 z" style="fill:#ccd1d9"/><path id="path981" d="m 22.998,12 c -0.553,0 -1,-0.447 -1,-1 0,-4.963 -4.037,-9 -9,-9 -4.963,0 -9,4.037 -9,9 0,0.553 -0.447,1 -1,1 -0.553,0 -1,-0.447 -1,-1 0,-6.065 4.934,-11 11,-11 6.064,0 11,4.935 11,11 0,0.553 -0.447,1 -1,1 z" style="fill:#ccd1d9"/><path id="path983" d="m 3,31.005 c -0.553,0 -1,-0.447 -1,-1 V 10.998 c 0,-0.553 0.447,-1 1,-1 0.553,0 1,0.447 1,1 v 19.007 c 0,0.553 -0.447,1 -1,1 z" style="fill:#ccd1d9"/><path id="path985" d="m 22.996,31.005 c -0.553,0 -1,-0.447 -1,-1 V 10.998 c 0,-0.553 0.447,-1 1,-1 0.553,0 1,0.447 1,1 v 19.007 c 0,0.553 -0.447,1 -1,1 z" style="fill:#ccd1d9"/><path id="path987" d="m 8,31.005 c -0.553,0 -1,-0.447 -1,-1 V 16 c 0,-0.553 0.447,-1 1,-1 0.553,0 1,0.447 1,1 v 14.005 c 0,0.553 -0.447,1 -1,1 z" style="fill:#aab2bd"/><path id="path989" d="M 13.998,18 H 8 C 7.447,18 7,17.553 7,17 7,16.447 7.447,16 8,16 h 5.998 c 0.553,0 1,0.447 1,1 0,0.553 -0.447,1 -1,1 z" style="fill:#aab2bd"/><path id="path991" d="m 13.998,22 c -0.553,0 -1,-0.447 -1,-1 v -4 c 0,-0.553 0.447,-1 1,-1 0.553,0 1,0.447 1,1 v 4 c 0,0.553 -0.447,1 -1,1 z" style="fill:#aab2bd"/><path id="path993" d="M 8.002,26 C 7.678,26 7.361,25.844 7.168,25.555 6.861,25.096 6.986,24.475 7.445,24.168 l 5.998,-4 c 0.457,-0.307 1.08,-0.183 1.387,0.277 0.307,0.459 0.182,1.08 -0.277,1.387 l -5.998,4 C 8.385,25.945 8.191,26 8.002,26 Z" style="fill:#aab2bd"/><path id="path995" d="m 17.996,31.005 c -0.553,0 -1,-0.447 -1,-1 V 16 c 0,-0.553 0.447,-1 1,-1 0.553,0 1,0.447 1,1 v 14.005 c 0,0.553 -0.447,1 -1,1 z" style="fill:#aab2bd"/><path id="path997" d="m 14.998,31.005 c -0.553,0 -1,-0.447 -1,-1 V 24 c 0,-0.553 0.447,-1 1,-1 0.553,0 1,0.447 1,1 v 6.005 c 0,0.553 -0.447,1 -1,1 z" style="fill:#aab2bd"/><path id="path999" d="m 14.998,25 c -0.322,0 -0.641,-0.156 -0.832,-0.445 -0.307,-0.46 -0.184,-1.08 0.277,-1.387 l 2.998,-1.999 c 0.461,-0.307 1.082,-0.183 1.387,0.277 0.307,0.46 0.184,1.08 -0.277,1.387 l -2.998,1.999 C 15.381,24.945 15.189,25 14.998,25 Z" style="fill:#aab2bd"/><path id="path1001" d="m 8,48.002 c -0.553,0 -1,-0.2235 -1,-0.5 V 32.504 c 0,-0.2765 0.447,-0.5 1,-0.5 0.553,0 1,0.2235 1,0.5 v 14.998 c 0,0.2765 -0.447,0.5 -1,0.5 z" style="fill:#ccd1d9;stroke-width:.70710677"/><path id="path1003" d="m 17.996,48.002 c -0.553,0 -1,-0.2235 -1,-0.5 V 32.504 c 0,-0.2765 0.447,-0.5 1,-0.5 0.553,0 1,0.2235 1,0.5 v 14.998 c 0,0.2765 -0.447,0.5 -1,0.5 z" style="fill:#ccd1d9;stroke-width:.70710677"/><path id="path1005" d="m 51.998,12 c -0.553,0 -1,-0.447 -1,-1 0,-4.963 -4.037,-9 -9,-9 -4.963,0 -9,4.037 -9,9 0,0.553 -0.447,1 -1,1 -0.553,0 -1,-0.447 -1,-1 0,-6.065 4.936,-11 11,-11 6.066,0 11,4.935 11,11 0,0.553 -0.447,1 -1,1 z" style="fill:#da4453"/><path id="path1007" d="m 51.996,31.005 c -0.553,0 -1,-0.447 -1,-1 V 10.998 c 0,-0.553 0.447,-1 1,-1 0.553,0 1,0.447 1,1 v 19.007 c 0,0.553 -0.447,1 -1,1 z" style="fill:#da4453"/><path id="path1009" d="m 32,31.005 c -0.553,0 -1,-0.447 -1,-1 V 10.998 c 0,-0.553 0.447,-1 1,-1 0.553,0 1,0.447 1,1 v 19.007 c 0,0.553 -0.447,1 -1,1 z" style="fill:#da4453"/><path id="path1011" d="m 52.496,34.005 c -0.553,0 -1,-0.447 -1,-1 0,-0.553 0.447,-1 1,-1 0.275,0 0.5,-0.225 0.5,-0.5 0,-0.275 -0.225,-0.5 -0.5,-0.5 -0.553,0 -1,-0.447 -1,-1 0,-0.553 0.447,-1 1,-1 1.379,0 2.5,1.121 2.5,2.5 0,1.379 -1.121,2.5 -2.5,2.5 z" style="fill:#ed5565"/><path id="path1013" d="m 31.5,34.005 c -1.379,0 -2.5,-1.121 -2.5,-2.5 0,-1.379 1.121,-2.5 2.5,-2.5 0.553,0 1,0.447 1,1 0,0.553 -0.447,1 -1,1 -0.275,0 -0.5,0.225 -0.5,0.5 0,0.275 0.225,0.5 0.5,0.5 0.553,0 1,0.447 1,1 0,0.553 -0.447,1 -1,1 z" style="fill:#ed5565"/><path id="path1015" d="M 52.496,34.004 H 31.5 c -0.553,0 -1,-0.447 -1,-1 0,-0.553 0.447,-1 1,-1 h 20.996 c 0.553,0 1,0.447 1,1 0,0.553 -0.447,1 -1,1 z" style="fill:#ed5565"/><g id="g1031" style="fill:#ce2c3f" transform="translate(-4.502)"><path id="path1017" d="m 51.498,31.005 c -0.553,0 -1,-0.447 -1,-1 V 16 c 0,-0.553 0.447,-1 1,-1 0.553,0 1,0.447 1,1 v 14.005 c 0,0.553 -0.447,1 -1,1 z"/><path id="path1019" d="M 51.498,18 H 45.5 c -0.553,0 -1,-0.447 -1,-1 0,-0.553 0.447,-1 1,-1 h 5.998 c 0.553,0 1,0.447 1,1 0,0.553 -0.447,1 -1,1 z"/><path id="path1021" d="m 45.5,22 c -0.553,0 -1,-0.447 -1,-1 v -4 c 0,-0.553 0.447,-1 1,-1 0.553,0 1,0.447 1,1 v 4 c 0,0.553 -0.447,1 -1,1 z"/><path id="path1023" d="m 51.496,26 c -0.189,0 -0.383,-0.055 -0.553,-0.168 l -5.998,-4 c -0.459,-0.307 -0.584,-0.928 -0.277,-1.387 0.307,-0.46 0.928,-0.584 1.387,-0.277 l 5.998,4 c 0.459,0.307 0.584,0.928 0.277,1.387 C 52.137,25.844 51.82,26 51.496,26 Z"/><path id="path1025" d="m 41.502,31.005 c -0.553,0 -1,-0.447 -1,-1 V 16 c 0,-0.553 0.447,-1 1,-1 0.553,0 1,0.447 1,1 v 14.005 c 0,0.553 -0.447,1 -1,1 z"/><path id="path1027" d="m 44.5,31.005 c -0.553,0 -1,-0.447 -1,-1 V 24 c 0,-0.553 0.447,-1 1,-1 0.553,0 1,0.447 1,1 v 6.005 c 0,0.553 -0.447,1 -1,1 z"/><path id="path1029" d="m 44.5,25 c -0.191,0 -0.383,-0.055 -0.555,-0.168 l -2.998,-1.999 c -0.461,-0.307 -0.584,-0.927 -0.277,-1.387 0.305,-0.46 0.926,-0.584 1.387,-0.277 l 2.998,1.999 c 0.461,0.307 0.584,0.927 0.277,1.387 C 45.141,24.844 44.822,25 44.5,25 Z"/></g><path id="path1033" d="m 2.5,34.005 c -1.379,0 -2.5,-1.121 -2.5,-2.5 0,-1.379 1.121,-2.5 2.5,-2.5 0.553,0 1,0.447 1,1 0,0.553 -0.447,1 -1,1 -0.275,0 -0.5,0.225 -0.5,0.5 0,0.275 0.225,0.5 0.5,0.5 0.553,0 1,0.447 1,1 0,0.553 -0.447,1 -1,1 z" style="fill:#e6e9ed"/><path id="path1035" d="m 23.496,34.005 c -0.553,0 -1,-0.447 -1,-1 0,-0.553 0.447,-1 1,-1 0.275,0 0.5,-0.225 0.5,-0.5 0,-0.275 -0.225,-0.5 -0.5,-0.5 -0.553,0 -1,-0.447 -1,-1 0,-0.553 0.447,-1 1,-1 1.379,0 2.5,1.121 2.5,2.5 0,1.379 -1.121,2.5 -2.5,2.5 z" style="fill:#e6e9ed"/><path id="path1037" d="M 23.496,31.005 H 2.5 c -0.553,0 -1,-0.447 -1,-1 0,-0.553 0.447,-1 1,-1 h 20.996 c 0.553,0 1,0.447 1,1 0,0.553 -0.447,1 -1,1 z" style="fill:#e6e9ed"/><path id="path1039" d="M 23.496,34.004 H 2.5 c -0.553,0 -1,-0.447 -1,-1 0,-0.553 0.447,-1 1,-1 h 20.996 c 0.553,0 1,0.447 1,1 0,0.553 -0.447,1 -1,1 z" style="fill:#e6e9ed"/><path id="path1041" d="M 52.496,31.005 H 31.5 c -0.553,0 -1,-0.447 -1,-1 0,-0.553 0.447,-1 1,-1 h 20.996 c 0.553,0 1,0.447 1,1 0,0.553 -0.447,1 -1,1 z" style="fill:#ed5565"/></svg>