<svg xmlns="http://www.w3.org/2000/svg" xmlns:svg="http://www.w3.org/2000/svg" xmlns:xlink="http://www.w3.org/1999/xlink" id="svg136" enable-background="new 0 0 129 129" version="1.1" viewBox="0 0 129 129"><metadata id="metadata142"/><defs id="defs140"><linearGradient id="linearGradient5017"><stop style="stop-color:#000;stop-opacity:1" id="stop5013" offset="0"/><stop style="stop-color:#000;stop-opacity:0" id="stop5015" offset="1"/></linearGradient><marker id="Arrow1Lstart" orient="auto" refX="0" refY="0" style="overflow:visible"><path id="path4743" d="M 0.0,0.0 L 5.0,-5.0 L -12.5,0.0 L 5.0,5.0 L 0.0,0.0 z" style="fill-rule:evenodd;stroke:#000;stroke-width:1pt" transform="scale(0.8) translate(12.5,0)"/></marker><linearGradient id="linearGradient5019" x1="0" x2="60" y1="30" y2="30" gradientUnits="userSpaceOnUse" xlink:href="#linearGradient5017"/></defs><g id="g1667" transform="matrix(3.0007668,0,0,2.1243978,-1.7261823,14.724391)"><g id="g1610"><path id="path1606" d="m 15.5,0 c -1.103,0 -2,0.897 -2,2 v 40 c 0,1.103 0.897,2 2,2 1.103,0 2,-0.897 2,-2 V 2 c 0,-1.103 -0.897,-2 -2,-2 z"/><path id="path1608" d="m 28.5,0 c -1.103,0 -2,0.897 -2,2 v 40 c 0,1.103 0.897,2 2,2 1.103,0 2,-0.897 2,-2 V 2 c 0,-1.103 -0.897,-2 -2,-2 z"/></g></g><path style="fill:#fff;stroke-width:.54661018" id="path3910"/></svg>