<svg xmlns="http://www.w3.org/2000/svg" xmlns:svg="http://www.w3.org/2000/svg" id="svg3892" width="512" height="512" version="1.1" viewBox="0 0 64 64"><metadata id="metadata3898"/><g id="g3890"><path id="path3816" d="m 32.18,45.25 -0.26,-2.99 -0.1,0.01 0.09,-0.06 -0.34,-3.93 -1.1,0.1 -14.66,1.28 -2.17,0.19 0.29,3.35 0.06,0.63 0.26,2.99 a 9,9 0 1 0 17.93,-1.57 z" data-original="#8B5E3C" style="fill:#8b5e3c"/><path id="path3818" d="m 30.77,18.27 h -0.01 l -3.92,0.34 -1.99,0.18 -2,0.17 -1.98,0.18 H 20.86 L 9.84,20.1 9.83,20.06 9.36,17.93 8.75,15.13 A 7.654,7.654 0 0 1 8.6,14.19 8.5,8.5 0 0 1 8.54,12.6 9.781,9.781 0 0 1 9.83,8.06 9.966,9.966 0 0 1 16.42,3.22 l 0.9,-0.2 a 10.981,10.981 0 0 1 10.54,3.46 10.989,10.989 0 0 1 2.67,5.79 11.647,11.647 0 0 1 0.1,1.2 l 0.01,0.27 z" data-original="#A97C50" style="fill:#a97c50"/><path id="path3820" d="m 55.23,53.58 a 4,4 0 1 1 -5.65,5.65 l -1.42,-1.41 5.66,-5.66 z" class="active-path" data-old_color="#ff9811" data-original="#FF9811" style="fill:#eb9b16"/><path id="path3822" d="m 45.573,51.574 h 8.004 v 4.002 h -8.004 z" data-old_color="#cc7400" data-original="#CC7400" transform="matrix(0.707,-0.707,0.707,0.707,-23.363,50.747)" style="fill:#eb7d16"/><path id="path3824" d="m 50.99,49.33 -5.66,5.66 -2.82,-2.83 5.65,-5.65 z" class="active-path" data-old_color="#ff9811" data-original="#FF9811" style="fill:#eb9b16"/><path id="path3826" d="m 39.925,45.919 h 7.99 v 4.002 h -7.99 z" data-old_color="#cc7400" data-original="#CC7400" transform="matrix(0.707,-0.707,0.707,0.707,-21.021,45.092)" style="fill:#eb7d16"/><path id="path3828" d="m 42.51,40.85 2.82,2.83 -5.65,5.65 -2.83,-2.82 z" class="active-path" data-old_color="#ff9811" data-original="#FF9811" style="fill:#eb9b16"/><path d="M 42.51,40.85 36.85,46.51 32.3,41.96 A 18.859,18.859 0 0 0 37.96,36.3 Z" data-original="#CC7400" style="fill:#eb7d16" id="path3830" data-old_color="#cc7400"/><path id="path3832" d="M 31.22,34.29 13.29,35.86 12.65,32.91 12.43,31.92 12.42,31.88 11.35,27 l -0.21,-0.96 -0.01,-0.03 4.28,-0.37 1.99,-0.18 1.99,-0.17 h 0.01 l 1.98,-0.18 h 0.01 l 9.55,-0.83 0.03,1 0.14,5.06 v 0.01 l 0.03,0.93 z" data-original="#A97C50" style="fill:#a97c50"/><path id="path3834" d="m 30.94,24.27 v 0.01 l -9.55,0.83 h -0.01 l -1.98,0.18 h -0.01 l -1.99,0.17 -1.99,0.18 -4.28,0.37 -1.07,-4.92 -0.22,-0.99 11.02,-0.96 h 0.01 l 1.98,-0.18 2,-0.17 1.99,-0.18 3.92,-0.34 h 0.01 v 0.09 l 0.03,0.91 z" data-original="#8B5E3C" style="fill:#8b5e3c"/><path id="path3836" d="m 7,26 a 14.936,14.936 0 0 1 2.36,-8.07 l 0.48,2.17 1.29,5.91 1.3,5.91 0.86,3.94 17.93,-1.57 -0.28,-10.01 -0.17,-6.01 -0.13,-4.53 A 15,15 0 0 1 30.47,38.38 L 15.81,39.66 A 14.986,14.986 0 0 1 7,26 Z" data-original="#E6E7E8" style="fill:#e6e7e8"/><path id="path3838" d="M 29.25,8.44 A 18.793,18.793 0 0 0 22,7 1.21,1.21 0 0 0 21.81,7.01 17.961,17.961 0 0 0 17.84,7.46 19,19 0 0 0 13.93,43.2 c 0.41,0.19 0.82,0.37 1.24,0.53 a 19.016,19.016 0 0 0 16.65,-1.46 l 0.09,-0.06 c 0.13,-0.08 0.26,-0.16 0.39,-0.25 A 18.993,18.993 0 0 0 29.25,8.44 Z m 1.22,29.94 A 15,15 0 1 1 37,26 14.953,14.953 0 0 1 30.47,38.38 Z" class="active-path" data-old_color="#ff9811" data-original="#FF9811" style="fill:#eb9b16"/><path d="M 31.19,31.28 H 31.14 L 31.11,30.35 Z" data-original="#754C29" style="fill:#714926" id="path3840" data-old_color="#754c29"/><path d="M 20.95,20.13 10.06,21.09 9.84,20.1 9.83,20.06 9.75,19.11 l 11.03,-0.97 0.08,1 h 0.01 z" data-original="#754C29" style="fill:#714926" id="path3842" data-old_color="#754c29"/><path id="path3844" d="m 22.851,17.876 h 2 v 2 h -2 z" data-old_color="#754c29" data-original="#754C29" transform="matrix(0.996,-0.087,0.087,0.996,-1.559,2.157)" style="fill:#714926"/><path d="M 30.85,19.27 H 30.8 l -0.03,-0.91 z" data-original="#754C29" style="fill:#714926" id="path3846" data-old_color="#754c29"/><path d="m 30.8,19.27 -3.87,0.34 -0.09,-1 -0.09,-0.99 3.93,-0.35 0.08,1 h 0.01 v 0.09 z" data-original="#754C29" style="fill:#714926" id="path3848" data-old_color="#754c29"/><path id="path3850" d="m 11.35,27 -0.13,0.01 -0.08,-0.97 z" data-original="#E6E7E8" style="fill:#e6e7e8"/><g id="g3888" style="fill:#754c29"><path d="m 15.5,26.63 -4.15,0.37 -0.21,-0.96 -0.01,-0.03 -0.08,-0.99 4.27,-0.38 0.09,1 z" data-original="#754C29" style="fill:#714926" id="path3852" data-old_color="#754C29"/><path id="path3854" d="m 17.397,24.376 h 2 v 2 h -2 z" data-old_color="#754C29" data-original="#754C29" transform="matrix(0.996,-0.087,0.087,0.996,-2.136,1.695)" style="fill:#714926"/><path d="m 31.03,25.27 -0.06,0.01 -0.03,-1 z" data-original="#754C29" style="fill:#714926" id="path3856" data-old_color="#754C29"/><path d="m 30.97,25.28 -9.5,0.83 -0.09,-1 -0.08,-0.99 9.55,-0.84 0.09,0.99 v 0.01 z" data-original="#754C29" style="fill:#714926" id="path3858" data-old_color="#754C29"/><path d="m 20,32.26 -7.35,0.65 -0.22,-0.99 -0.01,-0.04 -0.08,-0.96 7.49,-0.65 z" data-original="#754C29" style="fill:#714926" id="path3860" data-old_color="#754C29"/><path id="path3862" d="m 21.904,30.004 h 2 v 2 h -2 z" data-old_color="#754C29" data-original="#754C29" transform="matrix(0.996,-0.087,0.087,0.996,-2.608,2.108)" style="fill:#714926"/><path d="m 31.14,31.28 -5.16,0.46 -0.17,-1.99 5.21,-0.46 0.09,1.05 v 0.01 z" data-original="#754C29" style="fill:#714926" id="path3864" data-old_color="#754C29"/><path id="path3866" d="m 17.318,46.379 h 4 v 2 h -4 z" data-old_color="#754C29" data-original="#754C29" transform="matrix(0.996,-0.087,0.087,0.996,-4.045,1.859)" style="fill:#714926"/><path id="path3868" d="m 25.287,45.682 h 4 v 2 h -4 z" data-old_color="#754C29" data-original="#754C29" transform="matrix(0.996,-0.087,0.087,0.996,-3.954,2.549)" style="fill:#714926"/><path id="path3870" d="m 21.652,50.015 h 4 v 2 h -4 z" data-old_color="#754C29" data-original="#754C29" transform="matrix(0.996,-0.087,0.087,0.996,-4.369,2.263)" style="fill:#714926"/></g></g></svg>